{"glyphs":{"0":{"ha":1036,"x_min":-4,"x_max":941,"o":"m -4 -18 l -4 519 l 171 694 l 876 694 l 600 418 l 395 418 l 479 502 l 189 502 l 189 175 l -4 -18 m 61 0 l 338 277 l 541 277 l 458 193 l 747 193 l 747 519 l 941 712 l 941 175 l 766 0 l 61 0 z "},"1":{"ha":515,"x_min":-27,"x_max":453,"o":"m 241 0 l 241 435 l 435 629 l 435 0 l 241 0 m -27 502 l 165 694 l 453 694 l 260 502 l -27 502 z "},"2":{"ha":1036,"x_min":-23,"x_max":941,"o":"m -23 0 l 171 193 l 941 193 l 941 0 l -23 0 m 228 251 l 479 502 l -4 502 l -4 694 l 773 694 l 773 509 l 515 251 l 228 251 z "},"3":{"ha":949,"x_min":-23,"x_max":875,"o":"m -5 0 l -5 193 l 395 193 l 366 222 l 510 365 l 875 0 l -5 0 m 170 251 l -23 444 l 254 444 l 311 502 l -5 502 l -5 694 l 791 694 l 347 251 l 170 251 z "},"4":{"ha":949,"x_min":-5,"x_max":857,"o":"m -5 251 l -5 435 l 254 694 l 541 694 l 290 444 l 606 444 l 606 251 l -5 251 m 663 0 l 663 694 l 857 694 l 857 0 l 663 0 z "},"5":{"ha":949,"x_min":-5,"x_max":857,"o":"m -5 0 l -5 193 l 663 193 l 663 251 l 254 251 l -5 509 l -5 694 l 96 694 l 347 444 l 857 444 l 857 175 l 682 0 l -5 0 m 338 502 l 144 694 l 773 694 l 773 502 l 338 502 z "},"6":{"ha":949,"x_min":-5,"x_max":857,"o":"m 857 -18 l 587 251 l 245 251 l 245 444 l 682 444 l 857 269 l 857 -18 m -5 0 l -5 519 l 170 694 l 857 694 l 857 502 l 264 502 l 189 426 l 189 193 l 598 193 l 791 0 l -5 0 z "},"7":{"ha":1036,"x_min":-4,"x_max":959,"o":"m -4 502 l -4 694 l 625 694 l 433 502 l -4 502 m 330 0 l 330 353 l 673 694 l 959 694 l 524 259 l 524 0 l 330 0 z "},"8":{"ha":949,"x_min":-5,"x_max":857,"o":"m 663 193 l 663 251 l 477 251 l 663 435 l 663 502 l 189 502 l 189 444 l 624 444 l 431 251 l 189 251 l 189 193 l 663 193 m 170 0 l -5 175 l -5 269 l 73 347 l -5 426 l -5 519 l 170 694 l 682 694 l 857 519 l 857 426 l 779 347 l 857 269 l 857 175 l 682 0 l 170 0 z "},"9":{"ha":949,"x_min":-5,"x_max":857,"o":"m -5 0 l -5 193 l 587 193 l 663 269 l 663 502 l 206 502 l 264 444 l 606 444 l 606 251 l 170 251 l -5 426 l -5 694 l 857 694 l 857 175 l 682 0 l -5 0 z "},"!":{"ha":255,"x_min":-11,"x_max":182,"o":"m -11 0 l -11 102 l 182 296 l 182 0 l -11 0 m -11 149 l -11 694 l 182 694 l 182 342 l -11 149 z "},"\"":{"ha":515,"x_min":-9,"x_max":435,"o":"m -9 502 l -9 694 l 184 694 l 184 593 l 92 502 l -9 502 m 241 502 l 241 694 l 435 694 l 435 593 l 343 502 l 241 502 z "},"'":{"ha":255,"x_min":-11,"x_max":182,"o":"m -11 502 l -11 694 l 182 694 l 182 593 l 91 502 l -11 502 z "},"(":{"ha":429,"x_min":-9,"x_max":350,"o":"m 81 0 l -9 91 l -9 604 l 81 694 l 350 694 l 350 593 l 259 502 l 183 502 l 183 193 l 259 193 l 350 102 l 350 0 l 81 0 z "},")":{"ha":429,"x_min":-9,"x_max":350,"o":"m -9 0 l -9 102 l 81 193 l 157 193 l 157 502 l 81 502 l -9 593 l -9 694 l 259 694 l 350 604 l 350 91 l 259 0 l -9 0 z "},",":{"ha":255,"x_min":-11,"x_max":182,"o":"m -11 -186 l -11 193 l 182 193 l 182 8 l -11 -186 z "},".":{"ha":255,"x_min":-11,"x_max":182,"o":"m -11 0 l -11 193 l 182 193 l 182 0 l -11 0 z "},":":{"ha":255,"x_min":-11,"x_max":182,"o":"m -11 0 l -11 193 l 182 193 l 182 0 l -11 0 m -11 251 l -11 444 l 182 444 l 182 251 l -11 251 z "},";":{"ha":255,"x_min":-11,"x_max":182,"o":"m -11 -186 l -11 193 l 182 193 l 182 8 l -11 -186 m -11 251 l -11 444 l 182 444 l 182 251 l -11 251 z "},"?":{"ha":863,"x_min":-5,"x_max":777,"o":"m 245 0 l 245 296 l 438 102 l 438 0 l 245 0 m 425 161 l 282 305 l 477 502 l 263 502 l 179 418 l -5 418 l -5 519 l 170 694 l 597 694 l 777 514 l 425 161 z "},"@":{"ha":949,"x_min":-5,"x_max":857,"o":"m 663 444 l 663 502 l 522 502 l 522 444 l 663 444 m 170 0 l -5 175 l -5 519 l 170 694 l 682 694 l 857 519 l 857 251 l 338 251 l 245 342 l 245 502 l 189 502 l 189 193 l 791 193 l 598 0 l 170 0 z "},"A":{"ha":1036,"x_min":-26,"x_max":967,"o":"m 753 0 l 753 170 l 481 170 l 677 363 l 753 363 l 753 441 l 948 636 l 948 0 l 753 0 m -26 0 l 677 703 l 967 703 l 264 0 l -26 0 z "},"B":{"ha":949,"x_min":-7,"x_max":882,"o":"m -7 0 l -7 703 l 189 703 l 189 449 l 339 449 l 396 507 l 245 507 l 245 703 l 882 703 l 532 351 l 882 0 l 245 0 l 245 195 l 396 195 l 339 254 l 189 254 l 189 0 l -7 0 z "},"C":{"ha":949,"x_min":-7,"x_max":864,"o":"m 170 0 l -7 176 l -7 703 l 864 703 l 864 514 l 669 319 l 669 507 l 189 507 l 189 195 l 864 195 l 864 0 l 170 0 z "},"D":{"ha":1123,"x_min":-5,"x_max":1053,"o":"m -5 0 l -5 703 l 350 703 l 1053 0 l 762 0 l 255 507 l 190 507 l 190 195 l 519 195 l 715 0 l -5 0 z "},"E":{"ha":949,"x_min":-7,"x_max":882,"o":"m 245 254 l 245 449 l 610 449 l 610 254 l 245 254 m -7 0 l -7 525 l 170 703 l 864 703 l 864 507 l 189 507 l 189 195 l 882 195 l 686 0 l -7 0 z "},"F":{"ha":949,"x_min":-7,"x_max":864,"o":"m 245 254 l 245 449 l 713 449 l 518 254 l 245 254 m -7 0 l -7 703 l 864 703 l 864 507 l 189 507 l 189 0 l -7 0 z "},"G":{"ha":1036,"x_min":-7,"x_max":967,"o":"m 677 0 l 313 363 l 604 363 l 967 0 l 677 0 m -7 0 l -7 703 l 864 703 l 864 507 l 189 507 l 189 195 l 434 195 l 629 0 l -7 0 z "},"H":{"ha":863,"x_min":-8,"x_max":779,"o":"m -8 0 l -8 525 l 187 720 l 187 0 l -8 0 m 583 0 l 583 254 l 245 254 l 245 449 l 583 449 l 583 703 l 779 703 l 779 0 l 583 0 z "},"I":{"ha":255,"x_min":-12,"x_max":183,"o":"m -12 0 l -12 703 l 183 703 l 183 0 l -12 0 z "},"J":{"ha":602,"x_min":-28,"x_max":524,"o":"m -28 0 l 167 195 l 336 195 l 524 382 l 524 92 l 431 0 l -28 0 m 328 235 l 328 703 l 524 703 l 524 430 l 328 235 z "},"K":{"ha":949,"x_min":-7,"x_max":882,"o":"m -7 0 l -7 703 l 189 703 l 189 298 l 217 327 l 362 182 l 180 0 l -7 0 m 591 0 l 241 351 l 591 703 l 882 703 l 532 351 l 882 0 l 591 0 z "},"L":{"ha":863,"x_min":-8,"x_max":779,"o":"m -8 0 l -8 703 l 187 703 l 187 195 l 779 195 l 779 0 l -8 0 z "},"M":{"ha":1731,"x_min":-20,"x_max":1648,"o":"m -1 0 l -1 636 l 194 441 l 194 0 l -1 0 m 681 0 l -20 703 l 270 703 l 971 0 l 681 0 m 1358 0 l 869 488 l 869 151 l 674 346 l 674 703 l 945 703 l 1648 0 l 1358 0 z "},"N":{"ha":1036,"x_min":-26,"x_max":967,"o":"m -7 0 l -7 636 l 189 441 l 189 0 l -7 0 m 677 0 l -26 703 l 264 703 l 967 0 l 677 0 m 948 66 l 753 262 l 753 703 l 948 703 l 948 66 z "},"O":{"ha":1036,"x_min":-7,"x_max":948,"o":"m 170 0 l -7 176 l -7 720 l 189 525 l 189 195 l 688 195 l 883 0 l 170 0 m 948 -19 l 753 176 l 753 507 l 255 507 l 60 703 l 948 703 l 948 -19 z "},"P":{"ha":1036,"x_min":-7,"x_max":967,"o":"m -7 0 l -7 703 l 967 703 l 518 254 l 247 254 l 247 449 l 423 449 l 481 507 l 189 507 l 189 0 l -7 0 z "},"Q":{"ha":1036,"x_min":-7,"x_max":967,"o":"m 677 -84 l 593 0 l -7 0 l -7 720 l 189 525 l 189 195 l 397 195 l 313 279 l 604 279 l 967 -84 l 677 -84 m 948 -19 l 753 176 l 753 507 l 255 507 l 60 703 l 772 703 l 948 525 l 948 -19 z "},"R":{"ha":1036,"x_min":-7,"x_max":967,"o":"m -7 0 l -7 703 l 629 703 l 434 507 l 189 507 l 189 0 l -7 0 m 677 0 l 326 351 l 677 703 l 967 703 l 616 351 l 967 0 l 677 0 z "},"S":{"ha":1036,"x_min":-26,"x_max":967,"o":"m -7 0 l -7 195 l 434 195 l 629 0 l -7 0 m 677 0 l -26 703 l 264 703 l 967 0 l 677 0 m 507 507 l 312 703 l 948 703 l 948 507 l 507 507 z "},"T":{"ha":949,"x_min":-7,"x_max":882,"o":"m 331 0 l 331 449 l 526 449 l 526 0 l 331 0 m -7 507 l -7 703 l 882 703 l 686 507 l -7 507 z "},"U":{"ha":949,"x_min":-7,"x_max":864,"o":"m 338 0 l -7 346 l -7 703 l 189 703 l 189 441 q 310 318 251 378 q 434 195 369 258 l 602 195 l 798 0 l 338 0 m 864 -19 l 669 176 l 669 703 l 864 703 l 864 -19 z "},"V":{"ha":1036,"x_min":-26,"x_max":967,"o":"m -7 66 l -7 703 l 189 703 l 189 262 l -7 66 m -26 0 l 677 703 l 967 703 l 264 0 l -26 0 z "},"W":{"ha":1731,"x_min":-20,"x_max":1648,"o":"m 681 0 l -20 703 l 270 703 l 758 214 l 758 552 l 954 357 l 954 0 l 681 0 m 1358 0 l 655 703 l 945 703 l 1648 0 l 1358 0 m 1629 66 l 1434 262 l 1434 703 l 1629 703 l 1629 66 z "},"X":{"ha":1036,"x_min":-26,"x_max":967,"o":"m 677 0 l 495 182 l 640 327 l 967 0 l 677 0 m 302 374 l -26 703 l 264 703 l 448 519 l 302 374 m -26 0 l 677 703 l 967 703 l 264 0 l -26 0 z "},"Y":{"ha":1036,"x_min":-26,"x_max":948,"o":"m 423 254 l -26 703 l 264 703 l 518 449 l 696 449 l 696 254 l 423 254 m 77 0 l 77 195 l 677 195 l 753 271 l 753 703 l 948 703 l 948 176 l 772 0 l 77 0 z "},"Z":{"ha":1036,"x_min":-26,"x_max":967,"o":"m 312 0 l 507 195 l 948 195 l 948 0 l 312 0 m -7 507 l -7 703 l 629 703 l 434 507 l -7 507 m -26 0 l 677 703 l 967 703 l 264 0 l -26 0 z "},"[":{"ha":429,"x_min":-9,"x_max":350,"o":"m -9 0 l -9 694 l 350 694 l 350 593 l 259 502 l 183 502 l 183 193 l 259 193 l 350 102 l 350 0 l -9 0 z "},"]":{"ha":429,"x_min":-9,"x_max":350,"o":"m -9 0 l -9 102 l 81 193 l 157 193 l 157 502 l 81 502 l -9 593 l -9 694 l 350 694 l 350 0 l -9 0 z "},"_":{"ha":863,"x_min":-5,"x_max":772,"o":"m -5 -167 l -5 26 l 772 26 l 772 -167 l -5 -167 z "},"a":{"ha":1036,"x_min":-22,"x_max":959,"o":"m -4 0 l -4 629 l 189 435 l 189 361 l 264 361 l 458 167 l 189 167 l 189 0 l -4 0 m 673 0 l -22 694 l 264 694 l 959 0 l 673 0 z "},"b":{"ha":949,"x_min":-4,"x_max":875,"o":"m -4 0 l -4 694 l 189 694 l 189 444 l 338 444 l 395 502 l 245 502 l 245 694 l 875 694 l 528 347 l 875 0 l 245 0 l 245 193 l 395 193 l 338 251 l 189 251 l 189 0 l -4 0 z "},"c":{"ha":949,"x_min":-5,"x_max":857,"o":"m 170 0 l -5 175 l -5 694 l 857 694 l 857 509 l 663 316 l 663 502 l 189 502 l 189 193 l 857 193 l 857 0 l 170 0 z "},"d":{"ha":949,"x_min":-4,"x_max":875,"o":"m -4 0 l -4 694 l 875 694 l 682 502 l 189 502 l 189 193 l 420 193 l 857 629 l 857 342 l 515 0 l -4 0 z "},"e":{"ha":949,"x_min":-4,"x_max":875,"o":"m 245 251 l 245 444 l 606 444 l 606 251 l 245 251 m -4 0 l -4 519 l 170 694 l 857 694 l 857 502 l 189 502 l 189 193 l 875 193 l 682 0 l -4 0 z "},"f":{"ha":949,"x_min":-5,"x_max":857,"o":"m 245 251 l 245 444 l 708 444 l 514 251 l 245 251 m -5 0 l -5 694 l 857 694 l 857 502 l 189 502 l 189 0 l -5 0 z "},"g":{"ha":1123,"x_min":-3,"x_max":1044,"o":"m 757 -84 l 313 361 l 600 361 l 1044 -84 l 757 -84 m -3 0 l -3 694 l 859 694 l 859 502 l 190 502 l 190 193 l 433 193 l 627 0 l -3 0 z "},"h":{"ha":863,"x_min":-5,"x_max":772,"o":"m -5 0 l -5 694 l 187 694 l 187 0 l -5 0 m 579 0 l 579 251 l 245 251 l 245 444 l 579 444 l 579 519 l 772 712 l 772 0 l 579 0 z "},"i":{"ha":255,"x_min":-11,"x_max":182,"o":"m -11 0 l -11 694 l 182 694 l 182 0 l -11 0 z "},"j":{"ha":515,"x_min":-27,"x_max":434,"o":"m -27 0 l 165 193 l 250 193 l 434 378 l 434 91 l 343 0 l -27 0 m 241 232 l 241 694 l 434 694 l 434 426 l 241 232 z "},"k":{"ha":949,"x_min":-4,"x_max":875,"o":"m 587 0 l 408 180 l 552 324 l 875 0 l 587 0 m -4 0 l -4 694 l 189 694 l 189 296 l 587 694 l 875 694 l 180 0 l -4 0 z "},"l":{"ha":863,"x_min":-5,"x_max":772,"o":"m -5 0 l -5 694 l 187 694 l 187 193 l 772 193 l 772 0 l -5 0 z "},"m":{"ha":1731,"x_min":-16,"x_max":1634,"o":"m 1423 0 l 1423 435 l 1615 629 l 1615 0 l 1423 0 m -16 0 l 678 694 l 948 694 l 948 342 l 754 149 l 754 483 l 271 0 l -16 0 m 652 0 l 1347 694 l 1634 694 l 940 0 l 652 0 z "},"n":{"ha":1036,"x_min":-22,"x_max":959,"o":"m -4 0 l -4 629 l 189 435 l 189 0 l -4 0 m 673 0 l -22 694 l 264 694 l 959 0 l 673 0 m 941 65 l 747 259 l 747 694 l 941 694 l 941 65 z "},"o":{"ha":1036,"x_min":-4,"x_max":941,"o":"m -4 0 l -4 712 l 189 519 l 189 193 l 682 193 l 876 0 l -4 0 m 941 -18 l 747 175 l 747 502 l 255 502 l 61 694 l 766 694 l 941 519 l 941 -18 z "},"p":{"ha":1036,"x_min":-4,"x_max":959,"o":"m -4 0 l -4 694 l 959 694 l 515 251 l 247 251 l 247 444 l 422 444 l 479 502 l 190 502 l 190 0 l -4 0 z "},"q":{"ha":1036,"x_min":-4,"x_max":959,"o":"m 171 0 l -4 175 l -4 712 l 190 519 l 190 193 l 349 193 l 541 0 l 171 0 m 673 -84 l 312 277 l 600 277 l 682 193 l 747 193 l 747 502 l 255 502 l 61 694 l 766 694 l 941 519 l 941 91 l 863 14 l 959 -84 l 673 -84 z "},"r":{"ha":1036,"x_min":-4,"x_max":959,"o":"m -4 0 l -4 694 l 625 694 l 433 502 l 190 502 l 190 0 l -4 0 m 673 0 l 326 347 l 673 694 l 959 694 l 612 347 l 959 0 l 673 0 z "},"s":{"ha":1036,"x_min":-22,"x_max":959,"o":"m -4 0 l -4 193 l 431 193 l 625 0 l -4 0 m 673 0 l -22 694 l 264 694 l 959 0 l 673 0 m 505 502 l 312 694 l 941 694 l 941 502 l 505 502 z "},"t":{"ha":949,"x_min":-23,"x_max":856,"o":"m 330 0 l 330 444 l 522 444 l 522 0 l 330 0 m -23 502 l 170 694 l 856 694 l 856 502 l -23 502 z "},"u":{"ha":949,"x_min":-5,"x_max":857,"o":"m 338 0 l -5 342 l -5 694 l 189 694 l 189 435 q 309 315 250 374 q 431 193 368 255 l 598 193 l 791 0 l 338 0 m 857 -18 l 663 175 l 663 694 l 857 694 l 857 -18 z "},"v":{"ha":1036,"x_min":-22,"x_max":959,"o":"m -4 65 l -4 694 l 189 694 l 189 259 l -4 65 m -22 0 l 673 694 l 959 694 l 264 0 l -22 0 z "},"w":{"ha":1731,"x_min":-16,"x_max":1634,"o":"m 3 65 l 3 694 l 195 694 l 195 259 l 3 65 m -16 0 l 678 694 l 966 694 l 271 0 l -16 0 m 671 0 l 671 353 l 864 545 l 864 212 l 1347 694 l 1634 694 l 940 0 l 671 0 z "},"x":{"ha":1036,"x_min":-22,"x_max":959,"o":"m -22 0 l 301 324 l 445 180 l 264 0 l -22 0 m 673 0 l -22 694 l 264 694 l 959 0 l 673 0 m 636 370 l 492 514 l 673 694 l 959 694 l 636 370 z "},"y":{"ha":1036,"x_min":-23,"x_max":941,"o":"m 422 251 l -23 694 l 264 694 l 515 444 l 690 444 l 690 251 l 422 251 m 79 0 l 79 193 l 671 193 l 747 269 l 747 694 l 941 694 l 941 175 l 766 0 l 79 0 z "},"z":{"ha":1036,"x_min":-22,"x_max":959,"o":"m 312 0 l 505 193 l 941 193 l 941 0 l 312 0 m -4 502 l -4 694 l 625 694 l 431 502 l -4 502 m -22 0 l 673 694 l 959 694 l 264 0 l -22 0 z "},"{":{"ha":515,"x_min":-15,"x_max":435,"o":"m 165 0 l 75 91 l 75 259 l -15 347 l 75 435 l 75 604 l 165 694 l 435 694 l 435 593 l 343 502 l 267 502 l 267 426 l 190 347 l 267 269 l 267 193 l 343 193 l 435 102 l 435 0 l 165 0 z "},"|":{"ha":255,"x_min":-11,"x_max":182,"o":"m -11 -84 l -11 694 l 182 694 l 182 -84 l -11 -84 z "},"}":{"ha":515,"x_min":-9,"x_max":439,"o":"m -9 0 l -9 102 l 83 193 l 159 193 l 159 269 l 236 347 l 159 426 l 159 502 l 83 502 l -9 593 l -9 694 l 260 694 l 351 604 l 351 435 l 439 347 l 351 259 l 351 91 l 260 0 l -9 0 z "},"~":{"ha":776,"x_min":-7,"x_max":688,"o":"m 419 167 l 252 334 l 179 334 l 95 251 l -7 251 l -7 353 l 168 528 l 262 528 l 430 361 l 503 361 l 586 444 l 688 444 l 688 342 l 513 167 l 419 167 z "},"©":{"ha":1251,"x_min":0,"x_max":1166,"o":"m 283 972 l 283 738 l 1 738 l 1 972 l 283 972 m 243 770 l 243 939 l 42 939 l 42 770 l 243 770 m 201 905 l 201 806 l 83 806 l 83 905 l 201 905 m 1 1 l 1 236 l 283 236 l 283 1 l 1 1 m 42 203 l 42 35 l 243 35 l 243 203 l 42 203 m 83 68 l 83 168 l 201 168 l 201 68 l 83 68 m 884 972 l 1166 972 l 1166 738 l 884 738 l 884 972 m 1126 770 l 1126 939 l 925 939 l 925 770 l 1126 770 m 1085 905 l 1085 806 l 966 806 l 966 905 l 1085 905 m 643 937 l 643 905 l 602 905 l 602 939 l 642 939 l 642 972 l 684 972 l 684 939 l 724 939 l 724 972 l 764 972 l 764 937 l 724 937 l 724 905 l 682 905 l 682 937 l 643 937 m 365 937 l 365 905 l 324 905 l 324 939 l 363 939 l 363 972 l 403 972 l 403 939 l 444 939 l 444 890 l 444 890 l 444 871 l 365 871 l 365 906 l 403 906 l 403 937 l 365 937 m 764 905 l 764 939 l 806 939 l 806 972 l 845 972 l 845 937 l 806 937 l 806 905 l 765 905 l 765 871 l 844 871 l 844 810 l 844 804 l 844 738 l 802 738 l 802 804 l 764 804 l 764 871 l 726 871 l 726 837 l 685 837 l 685 871 l 724 871 l 724 905 l 764 905 m 764 770 l 764 738 l 724 738 l 724 770 l 764 770 m 1123 336 l 1123 370 l 1165 370 l 1165 336 l 1123 336 m 1124 571 l 1124 604 l 1165 604 l 1165 570 l 1124 570 l 1124 536 l 1133 536 l 1165 536 l 1165 471 l 1123 471 l 1123 503 l 1043 503 l 1043 471 l 1084 471 l 1084 437 l 1043 437 l 1043 403 l 1084 403 l 1084 437 l 1124 437 l 1124 403 l 1085 403 l 1085 369 l 966 369 l 943 369 l 924 369 l 924 437 l 966 437 l 966 403 l 1002 403 l 1002 503 l 964 503 l 964 536 l 925 536 l 925 469 l 903 469 l 883 469 l 883 437 l 844 437 l 844 469 l 803 469 l 803 438 l 777 438 l 764 438 l 724 438 l 724 403 l 848 403 l 848 338 l 764 338 l 764 302 l 724 302 l 724 270 l 802 270 l 802 304 l 845 304 l 845 338 l 962 338 l 989 338 l 1002 338 l 1002 304 l 1043 304 l 1043 338 l 1085 338 l 1085 270 l 1124 270 l 1124 236 l 1085 236 l 1085 205 l 1043 205 l 1043 236 l 1002 236 l 1002 203 l 1047 203 l 1047 170 l 1002 170 l 1002 136 l 1002 136 l 1002 136 l 964 136 l 964 103 l 1084 103 l 1084 136 l 1123 136 l 1123 170 l 1085 170 l 1085 205 l 1123 205 l 1157 205 l 1165 205 l 1165 136 l 1124 136 l 1124 103 l 1165 103 l 1165 88 l 1165 68 l 1165 37 l 1124 37 l 1124 68 l 1084 68 l 1084 37 l 1005 37 l 1005 3 l 993 3 l 966 3 l 883 3 l 883 37 l 844 37 l 844 1 l 802 1 l 802 37 l 844 37 l 844 69 l 883 69 l 883 37 l 964 37 l 964 103 l 924 103 l 924 136 l 883 136 l 883 103 l 844 103 l 844 136 l 825 136 l 825 136 l 684 136 l 684 69 l 643 69 l 643 37 l 564 37 l 564 1 l 552 1 l 522 1 l 481 1 l 481 37 l 444 37 l 444 1 l 403 1 l 403 37 l 444 37 l 444 68 l 403 68 l 403 102 l 361 102 l 353 102 l 323 102 l 323 203 l 361 203 l 361 136 l 403 136 l 403 170 l 403 170 l 403 203 l 444 203 l 444 170 l 481 170 l 481 203 l 524 203 l 524 170 l 564 170 l 564 136 l 602 136 l 602 203 l 564 203 l 564 270 l 524 270 l 524 302 l 722 302 l 722 338 l 722 369 l 643 369 l 643 438 l 642 438 l 642 469 l 602 469 l 602 370 l 562 370 l 562 437 l 522 437 l 522 370 l 562 370 l 562 336 l 444 336 l 444 370 l 481 370 l 481 437 l 401 437 l 401 471 l 481 471 l 481 505 l 442 505 l 442 536 l 403 536 l 403 471 l 361 471 l 361 505 l 323 505 l 323 437 l 283 437 l 283 403 l 323 403 l 323 369 l 361 369 l 361 403 l 403 403 l 403 369 l 361 369 l 361 302 l 401 302 l 401 336 l 444 336 l 444 302 l 483 302 l 483 270 l 483 270 l 483 235 l 403 235 l 403 203 l 361 203 l 361 235 l 323 235 l 323 236 l 323 236 l 323 302 l 282 302 l 282 270 l 240 270 l 240 302 l 201 302 l 201 270 l 161 270 l 161 302 l 123 302 l 123 270 l 81 270 l 81 403 l 42 403 l 24 403 l 0 403 l 0 571 l 42 571 l 42 604 l 80 604 l 80 637 l 122 637 l 122 604 l 161 604 l 161 637 l 201 637 l 201 604 l 241 604 l 241 571 l 201 571 l 201 537 l 243 537 l 243 571 l 283 571 l 283 536 l 243 536 l 243 505 l 282 505 l 311 505 l 323 505 l 323 537 l 361 537 l 373 537 l 401 537 l 401 571 l 444 571 l 444 536 l 481 536 l 481 571 l 522 571 l 522 604 l 562 604 l 562 637 l 602 637 l 602 604 l 564 604 l 564 570 l 524 570 l 524 536 l 562 536 l 562 536 l 602 536 l 602 505 l 642 505 l 642 570 l 642 572 l 642 604 l 682 604 l 682 637 l 642 637 l 642 671 l 684 671 l 684 637 l 724 637 l 724 604 l 764 604 l 764 571 l 803 571 l 803 604 l 883 604 l 883 579 l 883 571 l 966 571 l 966 536 l 1005 536 l 1005 505 l 1043 505 l 1043 536 l 1005 536 l 1005 604 l 1044 604 l 1044 536 l 1085 536 l 1085 571 l 1124 571 m 403 270 l 403 302 l 444 302 l 444 270 l 403 270 l 403 270 m 282 469 l 241 469 l 241 437 l 282 437 l 282 469 m 282 370 l 282 403 l 241 403 l 241 370 l 282 370 m 161 369 l 161 338 l 240 338 l 240 369 l 209 369 l 209 369 l 161 369 m 241 336 l 241 302 l 282 302 l 282 336 l 241 336 m 241 505 l 201 505 l 201 471 l 241 471 l 241 505 m 42 571 l 42 537 l 80 537 l 80 571 l 42 571 m 123 422 l 123 403 l 123 369 l 161 369 l 161 403 l 201 403 l 201 469 l 180 469 l 161 469 l 122 469 l 122 505 l 161 505 l 161 571 l 122 571 l 122 536 l 80 536 l 80 471 l 42 471 l 42 438 l 123 438 l 123 422 m 282 336 l 282 369 l 323 369 l 323 336 l 282 336 l 282 336 m 522 505 l 522 536 l 481 536 l 481 505 l 522 505 m 522 469 l 481 469 l 481 437 l 522 437 l 522 469 m 522 471 l 562 471 l 562 503 l 522 503 l 522 471 m 483 37 l 522 37 l 522 68 l 483 68 l 483 37 m 552 69 l 564 69 l 564 134 l 524 134 l 524 170 l 483 170 l 483 136 l 403 136 l 403 103 l 444 103 l 444 69 l 481 69 l 481 103 l 524 103 l 524 69 l 552 69 m 602 136 l 602 69 l 642 69 l 642 136 l 602 136 m 724 236 l 724 270 l 642 270 l 642 236 l 724 236 m 844 270 l 844 170 l 962 170 l 962 270 l 844 270 m 764 203 l 724 203 l 724 170 l 764 170 l 764 203 m 643 471 l 684 471 l 684 505 l 656 505 l 643 505 l 643 471 m 883 505 l 883 536 l 883 536 l 861 536 l 844 536 l 844 570 l 803 570 l 803 536 l 764 536 l 764 570 l 684 570 l 684 537 l 724 537 l 724 514 l 724 505 l 724 471 l 764 471 l 764 483 l 764 483 l 764 505 l 844 505 l 844 505 l 883 505 m 602 370 l 643 370 l 643 336 l 602 336 l 602 370 m 803 704 l 803 637 l 724 637 l 724 704 l 803 704 m 845 704 l 924 704 l 924 671 l 964 671 l 964 704 l 1043 704 l 1043 671 l 1085 671 l 1085 704 l 1124 704 l 1124 658 l 1124 658 l 1124 637 l 1085 637 l 1085 604 l 1043 604 l 1043 637 l 964 637 l 964 604 l 883 604 l 883 637 l 924 637 l 924 670 l 845 670 l 845 704 m 323 37 l 323 69 l 361 69 l 361 37 l 323 37 m 724 68 l 724 103 l 764 103 l 764 68 l 724 68 m 883 237 l 924 237 l 924 203 l 883 203 l 883 237 m 42 671 l 42 637 l 1 637 l 1 671 l 42 671 l 42 705 l 81 705 l 81 671 l 42 671 m 363 637 l 363 670 l 323 670 l 323 770 l 363 770 l 363 671 l 403 671 l 403 770 l 444 770 l 444 738 l 483 738 l 483 670 l 444 670 l 444 670 l 444 637 l 481 637 l 481 604 l 363 604 l 363 571 l 323 571 l 323 604 l 241 604 l 241 637 l 201 637 l 201 671 l 122 671 l 122 705 l 283 705 l 283 671 l 243 671 l 243 637 l 363 637 m 483 905 l 483 937 l 444 937 l 444 972 l 524 972 l 524 939 l 564 939 l 564 906 l 602 906 l 602 871 l 602 871 l 602 838 l 642 838 l 642 804 l 685 804 l 685 787 l 685 770 l 685 738 l 643 738 l 643 770 l 602 770 l 602 704 l 564 704 l 564 670 l 522 670 l 522 738 l 483 738 l 483 770 l 483 793 l 483 804 l 524 804 l 524 838 l 562 838 l 562 871 l 524 871 l 524 905 l 483 905 m 564 738 l 564 770 l 525 770 l 525 738 l 564 738 m 564 804 l 601 804 l 601 837 l 564 837 l 564 804 m 481 838 l 481 804 l 324 804 l 324 837 l 324 838 l 324 871 l 365 871 l 365 838 l 481 838 z "}," ":{"ha":578,"x_min":0,"x_max":0,"o":""},"&":{"ha":1157,"x_min":0,"x_max":0,"o":""}}}
